<mxfile host="app.diagrams.net" agent="Mozilla/5.0 (Windows NT 10.0; Win64; x64) AppleWebKit/537.36 (KHTML, like Gecko) Chrome/131.0.0.0 Safari/537.36 Edg/131.0.0.0" version="24.8.9">
  <diagram name="Page-1" id="bMWLCuBrvqZ_QIejUdau">
    <mxGraphModel dx="2343" dy="630" grid="1" gridSize="10" guides="1" tooltips="1" connect="1" arrows="1" fold="1" page="1" pageScale="1" pageWidth="827" pageHeight="1169" math="0" shadow="0">
      <root>
        <mxCell id="0" />
        <mxCell id="1" parent="0" />
        <mxCell id="wfWS6R41Hs7KRzqIrebh-39" value="ทบทวนสัญลักษณ์" style="swimlane;fontFamily=Sarabun;fontSource=https%3A%2F%2Ffonts.googleapis.com%2Fcss%3Ffamily%3DSarabun;" vertex="1" parent="1">
          <mxGeometry x="-720" y="20" width="650" height="290" as="geometry" />
        </mxCell>
        <mxCell id="wfWS6R41Hs7KRzqIrebh-40" value="&lt;font data-font-src=&quot;https://fonts.googleapis.com/css?family=Sarabun&quot; face=&quot;Sarabun&quot;&gt;เริ่มต้น&lt;/font&gt;" style="ellipse;whiteSpace=wrap;html=1;" vertex="1" parent="wfWS6R41Hs7KRzqIrebh-39">
          <mxGeometry x="20" y="40" width="130" height="30" as="geometry" />
        </mxCell>
        <mxCell id="wfWS6R41Hs7KRzqIrebh-41" value="" style="endArrow=classic;html=1;rounded=0;" edge="1" parent="wfWS6R41Hs7KRzqIrebh-39">
          <mxGeometry width="50" height="50" relative="1" as="geometry">
            <mxPoint x="84.5" y="70" as="sourcePoint" />
            <mxPoint x="84.5" y="120" as="targetPoint" />
          </mxGeometry>
        </mxCell>
        <mxCell id="wfWS6R41Hs7KRzqIrebh-42" value="&lt;font face=&quot;Sarabun&quot;&gt;สิ้นสุด&lt;/font&gt;" style="ellipse;whiteSpace=wrap;html=1;" vertex="1" parent="wfWS6R41Hs7KRzqIrebh-39">
          <mxGeometry x="150" y="90" width="130" height="30" as="geometry" />
        </mxCell>
        <mxCell id="wfWS6R41Hs7KRzqIrebh-43" value="" style="endArrow=classic;html=1;rounded=0;" edge="1" parent="wfWS6R41Hs7KRzqIrebh-39">
          <mxGeometry width="50" height="50" relative="1" as="geometry">
            <mxPoint x="214.5" y="40" as="sourcePoint" />
            <mxPoint x="214.5" y="90" as="targetPoint" />
          </mxGeometry>
        </mxCell>
        <mxCell id="wfWS6R41Hs7KRzqIrebh-44" value="กระบวนการ" style="rounded=0;whiteSpace=wrap;html=1;fontFamily=Sarabun;fontSource=https%3A%2F%2Ffonts.googleapis.com%2Fcss%3Ffamily%3DSarabun;" vertex="1" parent="wfWS6R41Hs7KRzqIrebh-39">
          <mxGeometry x="320" y="70" width="120" height="30" as="geometry" />
        </mxCell>
        <mxCell id="wfWS6R41Hs7KRzqIrebh-45" value="" style="endArrow=classic;html=1;rounded=0;" edge="1" parent="wfWS6R41Hs7KRzqIrebh-39">
          <mxGeometry width="50" height="50" relative="1" as="geometry">
            <mxPoint x="379" y="40" as="sourcePoint" />
            <mxPoint x="379.5" y="70" as="targetPoint" />
          </mxGeometry>
        </mxCell>
        <mxCell id="wfWS6R41Hs7KRzqIrebh-46" value="" style="endArrow=classic;html=1;rounded=0;" edge="1" parent="wfWS6R41Hs7KRzqIrebh-39">
          <mxGeometry width="50" height="50" relative="1" as="geometry">
            <mxPoint x="379.75" y="100" as="sourcePoint" />
            <mxPoint x="380.25" y="130" as="targetPoint" />
          </mxGeometry>
        </mxCell>
        <mxCell id="wfWS6R41Hs7KRzqIrebh-47" value="ประโยคเงื่อนไข" style="rhombus;whiteSpace=wrap;html=1;fontFamily=Sarabun;fontSource=https%3A%2F%2Ffonts.googleapis.com%2Fcss%3Ffamily%3DSarabun;" vertex="1" parent="wfWS6R41Hs7KRzqIrebh-39">
          <mxGeometry x="490" y="60" width="100" height="60" as="geometry" />
        </mxCell>
        <mxCell id="wfWS6R41Hs7KRzqIrebh-48" value="" style="endArrow=classic;html=1;rounded=0;" edge="1" parent="wfWS6R41Hs7KRzqIrebh-39">
          <mxGeometry width="50" height="50" relative="1" as="geometry">
            <mxPoint x="539.71" y="30" as="sourcePoint" />
            <mxPoint x="540.21" y="60" as="targetPoint" />
          </mxGeometry>
        </mxCell>
        <mxCell id="wfWS6R41Hs7KRzqIrebh-49" value="" style="endArrow=classic;html=1;rounded=0;" edge="1" parent="wfWS6R41Hs7KRzqIrebh-39">
          <mxGeometry width="50" height="50" relative="1" as="geometry">
            <mxPoint x="539.71" y="120" as="sourcePoint" />
            <mxPoint x="540" y="175" as="targetPoint" />
          </mxGeometry>
        </mxCell>
        <mxCell id="wfWS6R41Hs7KRzqIrebh-50" value="จริง" style="edgeLabel;html=1;align=center;verticalAlign=middle;resizable=0;points=[];fontFamily=Sarabun;fontSource=https%3A%2F%2Ffonts.googleapis.com%2Fcss%3Ffamily%3DSarabun;" vertex="1" connectable="0" parent="wfWS6R41Hs7KRzqIrebh-49">
          <mxGeometry x="-0.4142" y="-1" relative="1" as="geometry">
            <mxPoint as="offset" />
          </mxGeometry>
        </mxCell>
        <mxCell id="wfWS6R41Hs7KRzqIrebh-51" value="" style="endArrow=classic;html=1;rounded=0;exitX=1;exitY=0.5;exitDx=0;exitDy=0;" edge="1" parent="wfWS6R41Hs7KRzqIrebh-39" source="wfWS6R41Hs7KRzqIrebh-47">
          <mxGeometry width="50" height="50" relative="1" as="geometry">
            <mxPoint x="620" y="95" as="sourcePoint" />
            <mxPoint x="610" y="175" as="targetPoint" />
            <Array as="points">
              <mxPoint x="610" y="90" />
            </Array>
          </mxGeometry>
        </mxCell>
        <mxCell id="wfWS6R41Hs7KRzqIrebh-52" value="&lt;font data-font-src=&quot;https://fonts.googleapis.com/css?family=Sarabun&quot; face=&quot;Sarabun&quot;&gt;เท็จ&lt;/font&gt;" style="edgeLabel;html=1;align=center;verticalAlign=middle;resizable=0;points=[];" vertex="1" connectable="0" parent="wfWS6R41Hs7KRzqIrebh-51">
          <mxGeometry x="-0.0019" y="-2" relative="1" as="geometry">
            <mxPoint as="offset" />
          </mxGeometry>
        </mxCell>
        <mxCell id="wfWS6R41Hs7KRzqIrebh-53" value="&lt;font data-font-src=&quot;https://fonts.googleapis.com/css?family=Sarabun&quot; face=&quot;Sarabun&quot;&gt;ฟังก์ชัน/โมดูล&lt;/font&gt;" style="shape=process;whiteSpace=wrap;html=1;backgroundOutline=1;" vertex="1" parent="wfWS6R41Hs7KRzqIrebh-39">
          <mxGeometry x="25" y="180" width="120" height="30" as="geometry" />
        </mxCell>
        <mxCell id="wfWS6R41Hs7KRzqIrebh-54" value="" style="endArrow=classic;html=1;rounded=0;" edge="1" parent="wfWS6R41Hs7KRzqIrebh-39">
          <mxGeometry width="50" height="50" relative="1" as="geometry">
            <mxPoint x="84.70999999999998" y="150" as="sourcePoint" />
            <mxPoint x="85.20999999999998" y="180" as="targetPoint" />
          </mxGeometry>
        </mxCell>
        <mxCell id="wfWS6R41Hs7KRzqIrebh-55" value="" style="endArrow=classic;html=1;rounded=0;" edge="1" parent="wfWS6R41Hs7KRzqIrebh-39">
          <mxGeometry width="50" height="50" relative="1" as="geometry">
            <mxPoint x="84.70999999999998" y="210" as="sourcePoint" />
            <mxPoint x="85.20999999999998" y="240" as="targetPoint" />
          </mxGeometry>
        </mxCell>
        <mxCell id="wfWS6R41Hs7KRzqIrebh-56" value="" style="strokeWidth=2;html=1;shape=mxgraph.flowchart.start_2;whiteSpace=wrap;" vertex="1" parent="wfWS6R41Hs7KRzqIrebh-39">
          <mxGeometry x="205" y="185" width="20" height="20" as="geometry" />
        </mxCell>
        <mxCell id="wfWS6R41Hs7KRzqIrebh-57" value="" style="endArrow=classic;html=1;rounded=0;" edge="1" parent="wfWS6R41Hs7KRzqIrebh-39">
          <mxGeometry width="50" height="50" relative="1" as="geometry">
            <mxPoint x="214.70999999999998" y="155" as="sourcePoint" />
            <mxPoint x="215.20999999999998" y="185" as="targetPoint" />
          </mxGeometry>
        </mxCell>
        <mxCell id="wfWS6R41Hs7KRzqIrebh-58" value="" style="endArrow=classic;html=1;rounded=0;entryX=0;entryY=0.5;entryDx=0;entryDy=0;entryPerimeter=0;" edge="1" parent="wfWS6R41Hs7KRzqIrebh-39" target="wfWS6R41Hs7KRzqIrebh-56">
          <mxGeometry width="50" height="50" relative="1" as="geometry">
            <mxPoint x="189.99999999999997" y="155" as="sourcePoint" />
            <mxPoint x="190.49999999999997" y="185" as="targetPoint" />
            <Array as="points">
              <mxPoint x="190" y="180" />
            </Array>
          </mxGeometry>
        </mxCell>
        <mxCell id="wfWS6R41Hs7KRzqIrebh-59" value="" style="endArrow=classic;html=1;rounded=0;entryX=1;entryY=0.5;entryDx=0;entryDy=0;entryPerimeter=0;" edge="1" parent="wfWS6R41Hs7KRzqIrebh-39" target="wfWS6R41Hs7KRzqIrebh-56">
          <mxGeometry width="50" height="50" relative="1" as="geometry">
            <mxPoint x="239.99999999999997" y="155" as="sourcePoint" />
            <mxPoint x="240.49999999999997" y="185" as="targetPoint" />
            <Array as="points">
              <mxPoint x="240" y="180" />
            </Array>
          </mxGeometry>
        </mxCell>
        <mxCell id="wfWS6R41Hs7KRzqIrebh-60" value="" style="endArrow=classic;html=1;rounded=0;" edge="1" parent="wfWS6R41Hs7KRzqIrebh-39">
          <mxGeometry width="50" height="50" relative="1" as="geometry">
            <mxPoint x="214.70999999999998" y="205" as="sourcePoint" />
            <mxPoint x="215.20999999999998" y="235" as="targetPoint" />
          </mxGeometry>
        </mxCell>
        <mxCell id="wfWS6R41Hs7KRzqIrebh-61" value="&lt;font data-font-src=&quot;https://fonts.googleapis.com/css?family=Sarabun&quot; face=&quot;Sarabun&quot;&gt;ตัวเชื่อม&lt;/font&gt;" style="text;html=1;align=center;verticalAlign=middle;resizable=0;points=[];autosize=1;strokeColor=none;fillColor=none;" vertex="1" parent="wfWS6R41Hs7KRzqIrebh-39">
          <mxGeometry x="220" y="190" width="60" height="30" as="geometry" />
        </mxCell>
        <mxCell id="wfWS6R41Hs7KRzqIrebh-62" value="" style="endArrow=classic;html=1;rounded=0;" edge="1" parent="wfWS6R41Hs7KRzqIrebh-39">
          <mxGeometry width="50" height="50" relative="1" as="geometry">
            <mxPoint x="353.71" y="165" as="sourcePoint" />
            <mxPoint x="354.21" y="195" as="targetPoint" />
          </mxGeometry>
        </mxCell>
        <mxCell id="wfWS6R41Hs7KRzqIrebh-63" value="" style="verticalLabelPosition=bottom;verticalAlign=top;html=1;shape=offPageConnector;rounded=0;size=0.5;" vertex="1" parent="wfWS6R41Hs7KRzqIrebh-39">
          <mxGeometry x="339" y="195" width="30" height="30" as="geometry" />
        </mxCell>
        <mxCell id="wfWS6R41Hs7KRzqIrebh-64" value="" style="endArrow=classic;html=1;rounded=0;" edge="1" parent="wfWS6R41Hs7KRzqIrebh-39">
          <mxGeometry width="50" height="50" relative="1" as="geometry">
            <mxPoint x="405.71" y="195" as="sourcePoint" />
            <mxPoint x="406.21" y="225" as="targetPoint" />
          </mxGeometry>
        </mxCell>
        <mxCell id="wfWS6R41Hs7KRzqIrebh-65" value="" style="verticalLabelPosition=bottom;verticalAlign=top;html=1;shape=offPageConnector;rounded=0;size=0.5;" vertex="1" parent="wfWS6R41Hs7KRzqIrebh-39">
          <mxGeometry x="391" y="165" width="30" height="30" as="geometry" />
        </mxCell>
        <mxCell id="wfWS6R41Hs7KRzqIrebh-66" value="หน้าต่อไป" style="text;html=1;align=center;verticalAlign=middle;resizable=0;points=[];autosize=1;strokeColor=none;fillColor=none;fontFamily=Sarabun;fontSource=https%3A%2F%2Ffonts.googleapis.com%2Fcss%3Ffamily%3DSarabun;" vertex="1" parent="wfWS6R41Hs7KRzqIrebh-39">
          <mxGeometry x="345" y="220" width="70" height="30" as="geometry" />
        </mxCell>
        <mxCell id="wfWS6R41Hs7KRzqIrebh-67" value="ก" style="text;html=1;align=center;verticalAlign=middle;resizable=0;points=[];autosize=1;strokeColor=none;fillColor=none;fontFamily=Sarabun;fontSource=https%3A%2F%2Ffonts.googleapis.com%2Fcss%3Ffamily%3DSarabun;" vertex="1" parent="wfWS6R41Hs7KRzqIrebh-39">
          <mxGeometry x="339" y="190" width="30" height="30" as="geometry" />
        </mxCell>
        <mxCell id="wfWS6R41Hs7KRzqIrebh-68" value="ก" style="text;html=1;align=center;verticalAlign=middle;resizable=0;points=[];autosize=1;strokeColor=none;fillColor=none;fontFamily=Sarabun;fontSource=https%3A%2F%2Ffonts.googleapis.com%2Fcss%3Ffamily%3DSarabun;" vertex="1" parent="wfWS6R41Hs7KRzqIrebh-39">
          <mxGeometry x="391" y="160" width="30" height="30" as="geometry" />
        </mxCell>
        <mxCell id="wfWS6R41Hs7KRzqIrebh-69" value="แสดงผล/รับค่า" style="shape=parallelogram;perimeter=parallelogramPerimeter;whiteSpace=wrap;html=1;fixedSize=1;fontFamily=Sarabun;fontSource=https%3A%2F%2Ffonts.googleapis.com%2Fcss%3Ffamily%3DSarabun;" vertex="1" parent="wfWS6R41Hs7KRzqIrebh-39">
          <mxGeometry x="450" y="210" width="120" height="30" as="geometry" />
        </mxCell>
        <mxCell id="wfWS6R41Hs7KRzqIrebh-70" value="" style="endArrow=classic;html=1;rounded=0;" edge="1" parent="wfWS6R41Hs7KRzqIrebh-39">
          <mxGeometry width="50" height="50" relative="1" as="geometry">
            <mxPoint x="509.71" y="180" as="sourcePoint" />
            <mxPoint x="510.21" y="210" as="targetPoint" />
          </mxGeometry>
        </mxCell>
        <mxCell id="wfWS6R41Hs7KRzqIrebh-71" value="" style="endArrow=classic;html=1;rounded=0;" edge="1" parent="wfWS6R41Hs7KRzqIrebh-39">
          <mxGeometry width="50" height="50" relative="1" as="geometry">
            <mxPoint x="509.71" y="240" as="sourcePoint" />
            <mxPoint x="510.21" y="270" as="targetPoint" />
          </mxGeometry>
        </mxCell>
        <mxCell id="wfWS6R41Hs7KRzqIrebh-72" value="แก้ไขโจทย์ปัญหา" style="swimlane;fontFamily=Sarabun;fontSource=https%3A%2F%2Ffonts.googleapis.com%2Fcss%3Ffamily%3DSarabun;" vertex="1" parent="1">
          <mxGeometry x="-1270" y="620" width="1432" height="1670" as="geometry" />
        </mxCell>
        <mxCell id="wfWS6R41Hs7KRzqIrebh-124" value="" style="edgeStyle=orthogonalEdgeStyle;rounded=0;orthogonalLoop=1;jettySize=auto;html=1;" edge="1" parent="wfWS6R41Hs7KRzqIrebh-72" source="wfWS6R41Hs7KRzqIrebh-73" target="wfWS6R41Hs7KRzqIrebh-123">
          <mxGeometry relative="1" as="geometry" />
        </mxCell>
        <mxCell id="wfWS6R41Hs7KRzqIrebh-73" value="&lt;font data-font-src=&quot;https://fonts.googleapis.com/css?family=Sarabun&quot; face=&quot;Sarabun&quot;&gt;เริ่มต้น&lt;/font&gt;" style="ellipse;whiteSpace=wrap;html=1;" vertex="1" parent="wfWS6R41Hs7KRzqIrebh-72">
          <mxGeometry x="707" y="40" width="130" height="30" as="geometry" />
        </mxCell>
        <mxCell id="wfWS6R41Hs7KRzqIrebh-74" value="&lt;font face=&quot;Sarabun&quot;&gt;สิ้นสุด&lt;/font&gt;" style="ellipse;whiteSpace=wrap;html=1;" vertex="1" parent="wfWS6R41Hs7KRzqIrebh-72">
          <mxGeometry x="707" y="1590" width="130" height="30" as="geometry" />
        </mxCell>
        <mxCell id="wfWS6R41Hs7KRzqIrebh-80" value="" style="edgeStyle=orthogonalEdgeStyle;rounded=0;orthogonalLoop=1;jettySize=auto;html=1;" edge="1" parent="wfWS6R41Hs7KRzqIrebh-72" source="wfWS6R41Hs7KRzqIrebh-77" target="wfWS6R41Hs7KRzqIrebh-79">
          <mxGeometry relative="1" as="geometry" />
        </mxCell>
        <mxCell id="wfWS6R41Hs7KRzqIrebh-77" value="มีบะหมี่กึ่งสำเร็จรูป น้ำสะอาด และเครื่องปรุงครบหรือไม่?" style="rounded=0;whiteSpace=wrap;html=1;fontFamily=Sarabun;fontSource=https%3A%2F%2Ffonts.googleapis.com%2Fcss%3Ffamily%3DSarabun;" vertex="1" parent="wfWS6R41Hs7KRzqIrebh-72">
          <mxGeometry x="702" y="183.5" width="140" height="50" as="geometry" />
        </mxCell>
        <mxCell id="wfWS6R41Hs7KRzqIrebh-89" value="" style="edgeStyle=orthogonalEdgeStyle;rounded=0;orthogonalLoop=1;jettySize=auto;html=1;" edge="1" parent="wfWS6R41Hs7KRzqIrebh-72" source="wfWS6R41Hs7KRzqIrebh-79" target="wfWS6R41Hs7KRzqIrebh-81">
          <mxGeometry relative="1" as="geometry" />
        </mxCell>
        <mxCell id="wfWS6R41Hs7KRzqIrebh-79" value="ครบ/ไม่ครบ" style="rhombus;whiteSpace=wrap;html=1;" vertex="1" parent="wfWS6R41Hs7KRzqIrebh-72">
          <mxGeometry x="717" y="273.5" width="110" height="90" as="geometry" />
        </mxCell>
        <mxCell id="wfWS6R41Hs7KRzqIrebh-87" value="" style="edgeStyle=orthogonalEdgeStyle;rounded=0;orthogonalLoop=1;jettySize=auto;html=1;" edge="1" parent="wfWS6R41Hs7KRzqIrebh-72" source="wfWS6R41Hs7KRzqIrebh-81" target="wfWS6R41Hs7KRzqIrebh-84">
          <mxGeometry relative="1" as="geometry" />
        </mxCell>
        <mxCell id="wfWS6R41Hs7KRzqIrebh-81" value="สามารถไปซื้อของได้หรือไม่?" style="rounded=0;whiteSpace=wrap;html=1;fontFamily=Sarabun;fontSource=https%3A%2F%2Ffonts.googleapis.com%2Fcss%3Ffamily%3DSarabun;" vertex="1" parent="wfWS6R41Hs7KRzqIrebh-72">
          <mxGeometry x="512" y="293.5" width="140" height="50" as="geometry" />
        </mxCell>
        <mxCell id="wfWS6R41Hs7KRzqIrebh-88" value="" style="edgeStyle=orthogonalEdgeStyle;rounded=0;orthogonalLoop=1;jettySize=auto;html=1;" edge="1" parent="wfWS6R41Hs7KRzqIrebh-72" source="wfWS6R41Hs7KRzqIrebh-84" target="wfWS6R41Hs7KRzqIrebh-86">
          <mxGeometry relative="1" as="geometry" />
        </mxCell>
        <mxCell id="wfWS6R41Hs7KRzqIrebh-103" value="" style="edgeStyle=orthogonalEdgeStyle;rounded=0;orthogonalLoop=1;jettySize=auto;html=1;" edge="1" parent="wfWS6R41Hs7KRzqIrebh-72" source="wfWS6R41Hs7KRzqIrebh-84" target="wfWS6R41Hs7KRzqIrebh-97">
          <mxGeometry relative="1" as="geometry" />
        </mxCell>
        <mxCell id="wfWS6R41Hs7KRzqIrebh-84" value="ได้/ไม่ได้" style="rhombus;whiteSpace=wrap;html=1;" vertex="1" parent="wfWS6R41Hs7KRzqIrebh-72">
          <mxGeometry x="527" y="393.5" width="110" height="90" as="geometry" />
        </mxCell>
        <mxCell id="wfWS6R41Hs7KRzqIrebh-91" value="" style="edgeStyle=orthogonalEdgeStyle;rounded=0;orthogonalLoop=1;jettySize=auto;html=1;" edge="1" parent="wfWS6R41Hs7KRzqIrebh-72" source="wfWS6R41Hs7KRzqIrebh-86" target="wfWS6R41Hs7KRzqIrebh-90">
          <mxGeometry relative="1" as="geometry" />
        </mxCell>
        <mxCell id="wfWS6R41Hs7KRzqIrebh-86" value="เตรียมเงิน ไปตลาด ซื้อวัตถุดิบ" style="rounded=0;whiteSpace=wrap;html=1;fontFamily=Sarabun;fontSource=https%3A%2F%2Ffonts.googleapis.com%2Fcss%3Ffamily%3DSarabun;" vertex="1" parent="wfWS6R41Hs7KRzqIrebh-72">
          <mxGeometry x="512" y="513.5" width="140" height="50" as="geometry" />
        </mxCell>
        <mxCell id="wfWS6R41Hs7KRzqIrebh-102" value="" style="edgeStyle=orthogonalEdgeStyle;rounded=0;orthogonalLoop=1;jettySize=auto;html=1;" edge="1" parent="wfWS6R41Hs7KRzqIrebh-72" source="wfWS6R41Hs7KRzqIrebh-90" target="wfWS6R41Hs7KRzqIrebh-97">
          <mxGeometry relative="1" as="geometry" />
        </mxCell>
        <mxCell id="wfWS6R41Hs7KRzqIrebh-118" value="" style="edgeStyle=orthogonalEdgeStyle;rounded=0;orthogonalLoop=1;jettySize=auto;html=1;" edge="1" parent="wfWS6R41Hs7KRzqIrebh-72" source="wfWS6R41Hs7KRzqIrebh-90" target="wfWS6R41Hs7KRzqIrebh-117">
          <mxGeometry relative="1" as="geometry" />
        </mxCell>
        <mxCell id="wfWS6R41Hs7KRzqIrebh-90" value="ไม่ได้" style="rhombus;whiteSpace=wrap;html=1;" vertex="1" parent="wfWS6R41Hs7KRzqIrebh-72">
          <mxGeometry x="527" y="623.5" width="110" height="90" as="geometry" />
        </mxCell>
        <mxCell id="wfWS6R41Hs7KRzqIrebh-94" value="หยุดการทำ&amp;nbsp;" style="rounded=0;whiteSpace=wrap;html=1;fontFamily=Sarabun;fontSource=https%3A%2F%2Ffonts.googleapis.com%2Fcss%3Ffamily%3DSarabun;" vertex="1" parent="wfWS6R41Hs7KRzqIrebh-72">
          <mxGeometry x="512" y="1083.5" width="140" height="50" as="geometry" />
        </mxCell>
        <mxCell id="wfWS6R41Hs7KRzqIrebh-97" value="" style="ellipse;whiteSpace=wrap;html=1;aspect=fixed;" vertex="1" parent="wfWS6R41Hs7KRzqIrebh-72">
          <mxGeometry x="230" y="658.5" width="20" height="20" as="geometry" />
        </mxCell>
        <mxCell id="wfWS6R41Hs7KRzqIrebh-111" value="" style="edgeStyle=orthogonalEdgeStyle;rounded=0;orthogonalLoop=1;jettySize=auto;html=1;" edge="1" parent="wfWS6R41Hs7KRzqIrebh-72" source="wfWS6R41Hs7KRzqIrebh-104" target="wfWS6R41Hs7KRzqIrebh-109">
          <mxGeometry relative="1" as="geometry" />
        </mxCell>
        <mxCell id="wfWS6R41Hs7KRzqIrebh-112" value="" style="edgeStyle=orthogonalEdgeStyle;rounded=0;orthogonalLoop=1;jettySize=auto;html=1;" edge="1" parent="wfWS6R41Hs7KRzqIrebh-72" source="wfWS6R41Hs7KRzqIrebh-104" target="wfWS6R41Hs7KRzqIrebh-106">
          <mxGeometry relative="1" as="geometry" />
        </mxCell>
        <mxCell id="wfWS6R41Hs7KRzqIrebh-104" value="ถ้าของหมด" style="rhombus;whiteSpace=wrap;html=1;" vertex="1" parent="wfWS6R41Hs7KRzqIrebh-72">
          <mxGeometry x="527" y="803.5" width="110" height="90" as="geometry" />
        </mxCell>
        <mxCell id="wfWS6R41Hs7KRzqIrebh-115" value="" style="edgeStyle=orthogonalEdgeStyle;rounded=0;orthogonalLoop=1;jettySize=auto;html=1;" edge="1" parent="wfWS6R41Hs7KRzqIrebh-72" source="wfWS6R41Hs7KRzqIrebh-106" target="wfWS6R41Hs7KRzqIrebh-114">
          <mxGeometry relative="1" as="geometry" />
        </mxCell>
        <mxCell id="wfWS6R41Hs7KRzqIrebh-106" value="เปลี่ยนร้าน" style="rounded=0;whiteSpace=wrap;html=1;fontFamily=Sarabun;fontSource=https%3A%2F%2Ffonts.googleapis.com%2Fcss%3Ffamily%3DSarabun;" vertex="1" parent="wfWS6R41Hs7KRzqIrebh-72">
          <mxGeometry x="330" y="823.5" width="140" height="50" as="geometry" />
        </mxCell>
        <mxCell id="wfWS6R41Hs7KRzqIrebh-120" value="" style="edgeStyle=orthogonalEdgeStyle;rounded=0;orthogonalLoop=1;jettySize=auto;html=1;" edge="1" parent="wfWS6R41Hs7KRzqIrebh-72" source="wfWS6R41Hs7KRzqIrebh-109" target="wfWS6R41Hs7KRzqIrebh-94">
          <mxGeometry relative="1" as="geometry" />
        </mxCell>
        <mxCell id="wfWS6R41Hs7KRzqIrebh-122" value="" style="edgeStyle=orthogonalEdgeStyle;rounded=0;orthogonalLoop=1;jettySize=auto;html=1;entryX=0;entryY=0.5;entryDx=0;entryDy=0;exitX=0;exitY=0.5;exitDx=0;exitDy=0;" edge="1" parent="wfWS6R41Hs7KRzqIrebh-72" source="wfWS6R41Hs7KRzqIrebh-109" target="wfWS6R41Hs7KRzqIrebh-123">
          <mxGeometry relative="1" as="geometry">
            <mxPoint x="660" y="140" as="targetPoint" />
            <Array as="points">
              <mxPoint x="170" y="984" />
              <mxPoint x="170" y="130" />
            </Array>
          </mxGeometry>
        </mxCell>
        <mxCell id="wfWS6R41Hs7KRzqIrebh-109" value="ถ้าเงินไม่พอ" style="rhombus;whiteSpace=wrap;html=1;" vertex="1" parent="wfWS6R41Hs7KRzqIrebh-72">
          <mxGeometry x="527" y="938.5" width="110" height="90" as="geometry" />
        </mxCell>
        <mxCell id="wfWS6R41Hs7KRzqIrebh-116" value="" style="edgeStyle=orthogonalEdgeStyle;rounded=0;orthogonalLoop=1;jettySize=auto;html=1;" edge="1" parent="wfWS6R41Hs7KRzqIrebh-72" source="wfWS6R41Hs7KRzqIrebh-114">
          <mxGeometry relative="1" as="geometry">
            <mxPoint x="570" y="763.5" as="targetPoint" />
          </mxGeometry>
        </mxCell>
        <mxCell id="wfWS6R41Hs7KRzqIrebh-114" value="" style="ellipse;whiteSpace=wrap;html=1;aspect=fixed;" vertex="1" parent="wfWS6R41Hs7KRzqIrebh-72">
          <mxGeometry x="390" y="753.5" width="20" height="20" as="geometry" />
        </mxCell>
        <mxCell id="wfWS6R41Hs7KRzqIrebh-119" value="" style="edgeStyle=orthogonalEdgeStyle;rounded=0;orthogonalLoop=1;jettySize=auto;html=1;" edge="1" parent="wfWS6R41Hs7KRzqIrebh-72" source="wfWS6R41Hs7KRzqIrebh-117" target="wfWS6R41Hs7KRzqIrebh-104">
          <mxGeometry relative="1" as="geometry" />
        </mxCell>
        <mxCell id="wfWS6R41Hs7KRzqIrebh-117" value="" style="ellipse;whiteSpace=wrap;html=1;aspect=fixed;" vertex="1" parent="wfWS6R41Hs7KRzqIrebh-72">
          <mxGeometry x="572" y="753.5" width="20" height="20" as="geometry" />
        </mxCell>
        <mxCell id="wfWS6R41Hs7KRzqIrebh-125" value="" style="edgeStyle=orthogonalEdgeStyle;rounded=0;orthogonalLoop=1;jettySize=auto;html=1;" edge="1" parent="wfWS6R41Hs7KRzqIrebh-72" source="wfWS6R41Hs7KRzqIrebh-123" target="wfWS6R41Hs7KRzqIrebh-77">
          <mxGeometry relative="1" as="geometry" />
        </mxCell>
        <mxCell id="wfWS6R41Hs7KRzqIrebh-123" value="" style="ellipse;whiteSpace=wrap;html=1;aspect=fixed;" vertex="1" parent="wfWS6R41Hs7KRzqIrebh-72">
          <mxGeometry x="762" y="120" width="20" height="20" as="geometry" />
        </mxCell>
        <mxCell id="wfWS6R41Hs7KRzqIrebh-75" value="&lt;font data-font-src=&quot;https://fonts.googleapis.com/css?family=Sarabun&quot; face=&quot;Sarabun&quot;&gt;โจทย์ปัญหา&lt;/font&gt;" style="swimlane;whiteSpace=wrap;html=1;" vertex="1" parent="1">
          <mxGeometry x="-1440" y="30" width="665" height="310" as="geometry" />
        </mxCell>
        <mxCell id="wfWS6R41Hs7KRzqIrebh-76" value="&lt;p style=&quot;line-height: 120%;&quot;&gt;&lt;font data-font-src=&quot;https://fonts.googleapis.com/css?family=Sarabun&quot; face=&quot;Sarabun&quot; style=&quot;font-size: 14px;&quot;&gt;&lt;b&gt;&lt;u&gt;โจทย์&lt;/u&gt;&lt;/b&gt; จงเขียน Flowchart เพื่อแสดงขั้นตอนการต้มบะหมี่กึ่งสำเร็จรูป (โดยผู้อ่าน Flowchart คือน้องของคุณ&lt;br&gt;&amp;nbsp; &amp;nbsp; &amp;nbsp; &amp;nbsp; &amp;nbsp; ที่มีอายุ 5 ขวบและกำลังหยิบ Flowchart มาต้มมาม่าให้คุณรับประทาน โดยคุณจะไม่พูดอะไรกับน้องเลย)&lt;br&gt;&lt;/font&gt;&lt;br&gt;&lt;/p&gt;&lt;p style=&quot;line-height: 120%;&quot;&gt;&lt;font face=&quot;Sarabun&quot;&gt;&lt;b&gt;&lt;u&gt;หมายเหตุ&lt;/u&gt;&lt;/b&gt; ทุกขั้นตอนควรมีการอธิบายอย่างละเอียด และเตรียมแก้ไขสำหรับเหตุการณ์ที่อาจผิดพลาดในทุกขั้นตอน&lt;br&gt;&amp;nbsp; &amp;nbsp; &amp;nbsp; &amp;nbsp; &amp;nbsp; เช่น&lt;br&gt;&amp;nbsp; &amp;nbsp; &amp;nbsp; &amp;nbsp; &amp;nbsp; - กรณีให้น้องไปซื้อของที่ตลาด แต่ของหมด ควรดำเนินการอย่างไร?&lt;br&gt;&amp;nbsp; &amp;nbsp; &amp;nbsp; &amp;nbsp; &amp;nbsp; - กรณีให้น้องต้มน้ำ แต่น้ำยังไม่เดือด ควรใส่บะหมี่สำเร็จรูปลงไปเลยไหม&lt;br&gt;&amp;nbsp; &amp;nbsp; &amp;nbsp; &amp;nbsp; &amp;nbsp; - กรณีระหว่างทำกับข้าวแล้วแก้สหมด ควรดำเนินการอย่างไร?&lt;br&gt;&amp;nbsp; &amp;nbsp; &amp;nbsp; &amp;nbsp; &amp;nbsp; - กรณีน้องไปซื้อของ แต่จำนวนเงินไม่พอ ควรทำอย่างไร?&lt;br&gt;&amp;nbsp; &amp;nbsp; &amp;nbsp; &amp;nbsp; &amp;nbsp; - กรณีน้องต้มบะหมี่เสร็จ แต่พึ่งมาทราบภายหลังว่าในซองบะหมี่ไม่มีเครื่องปรุงมาด้วย ต้องทำอย่างไร?&lt;/font&gt;&lt;/p&gt;" style="text;html=1;align=left;verticalAlign=top;resizable=0;points=[];autosize=1;strokeColor=none;fillColor=none;fontSize=14;" vertex="1" parent="wfWS6R41Hs7KRzqIrebh-75">
          <mxGeometry x="15" y="20" width="650" height="240" as="geometry" />
        </mxCell>
      </root>
    </mxGraphModel>
  </diagram>
</mxfile>
